<svg style="display: none">
    <symbol viewBox="0 0 22 20" id="icon-tm">
      <path
        d="M20.945.765A1.552 1.552 0 0 0 19.373.52L1.456 7.754a1.543 1.543 0 0 0 .078 2.884L5.4 11.98l2.095 6.926c.004.014.017.023.023.036a.49.49 0 0 0 .319.293c.01.004.017.013.027.015H7.873a.448.448 0 0 0 .233-.011c.008-.002.016-.002.025-.005a.494.494 0 0 0 .191-.122c.006-.007.016-.008.022-.014l3.013-3.326 4.397 3.405c.267.209.596.322.935.322.734 0 1.367-.514 1.518-1.231L21.469 2.25a1.533 1.533 0 0 0-.524-1.486ZM8.588 13.295l-.707 3.437-1.475-4.878 7.315-3.81-4.997 4.998a.498.498 0 0 0-.136.253Zm8.639 4.772a.541.541 0 0 1-.347.399.525.525 0 0 1-.514-.078l-4.763-3.69a.5.5 0 0 0-.676.06L8.83 17.07l.706-3.427 7.189-7.19a.5.5 0 0 0-.584-.797L5.778 11.054 1.861 9.692A.526.526 0 0 1 1.5 9.2a.532.532 0 0 1 .334-.518l17.914-7.233a.536.536 0 0 1 .558.086.522.522 0 0 1 .182.518l-3.261 16.015v-.001Z" />
    </symbol>

    <symbol viewBox="0 0 22 12" id="icon-vk">
      <path
        d="M17.563 11.97a2.9 2.9 0 0 1-1.526-.478 7.533 7.533 0 0 1-1.305-1.161c-.323-.334-.859-.895-1.064-.895-.205 0-.352.698-.345 1.19.003.341-.12.67-.344.919a1.628 1.628 0 0 1-.895.38h-1.408a8.157 8.157 0 0 1-5.45-2.277C2.527 7.092.21 2.206.114 1.993A1.046 1.046 0 0 1 .224.871C.504.629.858.5 1.222.506h3.08c.248.038.485.128.697.266.2.138.359.33.462.554.316.7.679 1.377 1.086 2.025.96 1.518 1.386 1.867 1.54 1.943a6.366 6.366 0 0 0 .14-2.178 2.112 2.112 0 0 0-.155-.97.957.957 0 0 0-.565-.22l-.535-.524c-.103-.501.433-.934.807-1.1a6.174 6.174 0 0 1 2.31-.289h.52a6.466 6.466 0 0 1 1.578.152c1.246.273 1.202 1.313 1.151 2.511 0 .35-.037.759-.037 1.23v.363c-.028.33-.006.664.066.987a6.847 6.847 0 0 0 1.518-1.882c.425-.677.798-1.387 1.115-2.124.097-.233.263-.429.474-.558.21-.13.456-.187.7-.163h3.139c.093-.009.186-.009.279 0 .733 0 1.166.22 1.342.645.176.425.124 1.26-1.731 3.497l-.734.858a5.55 5.55 0 0 0-.91 1.206c.279.327.594.617.94.865a10.65 10.65 0 0 1 2.2 2.329 1.252 1.252 0 0 1 .19 1.275c-.153.231-.359.422-.599.554-.24.132-.507.202-.78.204L17.732 12l-.169-.03Zm-3.895-3.672c.66 0 1.232.6 1.84 1.229.33.371.699.702 1.101.986.304.21.662.32 1.027.319h.073l2.787-.038a1.02 1.02 0 0 0 .396-.107l-.073-.12a9.877 9.877 0 0 0-1.966-2.064c-.873-.759-1.32-1.116-1.371-1.7-.052-.584.36-1.092 1.18-2.056l.734-.842a8.15 8.15 0 0 0 1.503-2.238 4.012 4.012 0 0 0-.49 0h-3.206a.39.39 0 0 0-.176 0c-.34.805-.744 1.58-1.21 2.314-1.386 2.14-2.039 2.428-2.501 2.428a.85.85 0 0 1-.41-.106c-.734-.433-.734-1.396-.69-2.094v-.327c0-.493 0-.918.037-1.282.058-1.274 0-1.282-.28-1.35a6.075 6.075 0 0 0-1.363-.121h-.506a9.222 9.222 0 0 0-1.394.075c.07.054.132.118.183.19.303.493.454 1.07.433 1.654.096 1.252.044 2.883-.733 3.277a.984.984 0 0 1-.44.099c-.682 0-1.357-.668-2.509-2.473a17.942 17.942 0 0 1-1.18-2.162l-.06-.076a.868.868 0 0 0-.234-.084H1.185c.433.926 2.487 5.023 4.782 7.17a7.208 7.208 0 0 0 4.709 1.995h1.357a.716.716 0 0 0 .197-.076v-.068c0-.205 0-1.973 1.16-2.276.089-.037.183-.062.278-.076Z" />
    </symbol>

    <symbol viewBox="0 0 22 16" id="icon-youtube">
      <path
        d="m14.206 7.69-4.5-3a.375.375 0 0 0-.581.31v6a.366.366 0 0 0 .197.328.421.421 0 0 0 .178.047.337.337 0 0 0 .206-.066l4.5-3a.366.366 0 0 0 0-.618Zm-4.331 2.607V5.703L13.325 8l-3.45 2.297Zm10.734-7.66a1.914 1.914 0 0 0-1.134-1.274C16.306.143 11.215.163 11 .163c-.216 0-5.306-.02-8.475 1.2a1.913 1.913 0 0 0-1.134 1.275C1.156 3.547.875 5.216.875 8c0 2.784.281 4.453.516 5.363a1.913 1.913 0 0 0 1.134 1.275c3.169 1.218 8.26 1.2 8.475 1.2h.066c.646 0 5.4-.038 8.409-1.2a1.914 1.914 0 0 0 1.134-1.275c.235-.91.516-2.579.516-5.363 0-2.784-.281-4.453-.516-5.362Zm-.73 10.538a1.123 1.123 0 0 1-.676.76c-3.037 1.171-8.147 1.153-8.203 1.153-.056 0-5.166.018-8.203-1.153a1.125 1.125 0 0 1-.675-.76C1.897 12.303 1.625 10.7 1.625 8c0-2.7.272-4.303.497-5.175a1.125 1.125 0 0 1 .675-.76C5.834.895 10.944.914 11 .914c.056 0 5.166-.02 8.203 1.153a1.124 1.124 0 0 1 .675.76c.225.871.497 2.474.497 5.174s-.272 4.303-.497 5.175Z" />
    </symbol>
  </svg>
